REM DIRINDEX 1\3,1\2\4,1\2\5,1\2\6
REM DIRNAME folder01,folder02,folder03,folder04,folder05,folder06
TITLE ""
FILE "045.mp3" MP3
  TRACK 01 AUDIO
    TITLE "4:cjc137_1846"
    INDEX 01 00:00:00
  TRACK 02 AUDIO
    TITLE "0:"
    INDEX 01 00:00:68
  TRACK 03 AUDIO
    TITLE "6:cjc137_1847"
    INDEX 01 00:01:09
  TRACK 04 AUDIO
    TITLE "0:"
    INDEX 01 00:02:16
  TRACK 05 AUDIO
    TITLE "5:cjc137_1848"
    INDEX 01 00:02:26
  TRACK 06 AUDIO
    TITLE "0:"
    INDEX 01 00:03:21
  TRACK 07 AUDIO
    TITLE "4:cjc137_1849"
    INDEX 01 00:04:33
  TRACK 08 AUDIO
    TITLE "0:"
    INDEX 01 00:05:38
  TRACK 09 AUDIO
    TITLE "6:cjc137_1850"
    INDEX 01 00:05:46
  TRACK 10 AUDIO
    TITLE "0:"
    INDEX 01 00:07:05
  TRACK 11 AUDIO
    TITLE "5:cjc137_1851"
    INDEX 01 00:07:11
  TRACK 12 AUDIO
    TITLE "0:"
    INDEX 01 00:08:17
  TRACK 13 AUDIO
    TITLE "4:cjc137_1852"
    INDEX 01 00:09:24
  TRACK 14 AUDIO
    TITLE "0:"
    INDEX 01 00:10:23
  TRACK 15 AUDIO
    TITLE "6:cjc137_1853"
    INDEX 01 00:10:29
  TRACK 16 AUDIO
    TITLE "0:"
    INDEX 01 00:11:39
  TRACK 17 AUDIO
    TITLE "5:cjc137_1854"
    INDEX 01 00:11:42
  TRACK 18 AUDIO
    TITLE "0:"
    INDEX 01 00:12:40
  TRACK 19 AUDIO
    TITLE "4:cjc137_1855"
    INDEX 01 00:13:47
  TRACK 20 AUDIO
    TITLE "0:"
    INDEX 01 00:14:49
  TRACK 21 AUDIO
    TITLE "6:cjc137_1856"
    INDEX 01 00:14:56
  TRACK 22 AUDIO
    TITLE "0:"
    INDEX 01 00:15:50
  TRACK 23 AUDIO
    TITLE "5:cjc137_1857"
    INDEX 01 00:15:56
  TRACK 24 AUDIO
    TITLE "0:"
    INDEX 01 00:16:59
  TRACK 25 AUDIO
    TITLE "4:cjc137_1858"
    INDEX 01 00:17:67
  TRACK 26 AUDIO
    TITLE "0:"
    INDEX 01 00:19:18
  TRACK 27 AUDIO
    TITLE "6:cjc137_1859"
    INDEX 01 00:19:24
  TRACK 28 AUDIO
    TITLE "0:"
    INDEX 01 00:20:49
  TRACK 29 AUDIO
    TITLE "5:cjc137_1860"
    INDEX 01 00:20:53
  TRACK 30 AUDIO
    TITLE "0:"
    INDEX 01 00:22:05
  TRACK 31 AUDIO
    TITLE "4:cjc137_1861"
    INDEX 01 00:23:12
  TRACK 32 AUDIO
    TITLE "0:"
    INDEX 01 00:24:31
  TRACK 33 AUDIO
    TITLE "6:cjc137_1862"
    INDEX 01 00:24:35
  TRACK 34 AUDIO
    TITLE "0:"
    INDEX 01 00:25:37
  TRACK 35 AUDIO
    TITLE "5:cjc137_1863"
    INDEX 01 00:25:45
  TRACK 36 AUDIO
    TITLE "0:"
    INDEX 01 00:26:62
  TRACK 37 AUDIO
    TITLE "4:cjc137_1864"
    INDEX 01 00:27:67
  TRACK 38 AUDIO
    TITLE "0:"
    INDEX 01 00:28:60
  TRACK 39 AUDIO
    TITLE "6:cjc137_1865"
    INDEX 01 00:28:70
  TRACK 40 AUDIO
    TITLE "0:"
    INDEX 01 00:29:70
  TRACK 41 AUDIO
    TITLE "5:cjc137_1866"
    INDEX 01 00:30:03
  TRACK 42 AUDIO
    TITLE "0:"
    INDEX 01 00:30:71
  TRACK 43 AUDIO
    TITLE "4:cjc137_1867"
    INDEX 01 00:32:07
  TRACK 44 AUDIO
    TITLE "0:"
    INDEX 01 00:33:05
  TRACK 45 AUDIO
    TITLE "6:cjc137_1868"
    INDEX 01 00:33:13
  TRACK 46 AUDIO
    TITLE "0:"
    INDEX 01 00:34:20
  TRACK 47 AUDIO
    TITLE "5:cjc137_1869"
    INDEX 01 00:34:30
  TRACK 48 AUDIO
    TITLE "0:"
    INDEX 01 00:35:27
  TRACK 49 AUDIO
    TITLE "4:cjc137_1870"
    INDEX 01 00:36:35
  TRACK 50 AUDIO
    TITLE "0:"
    INDEX 01 00:37:22
  TRACK 51 AUDIO
    TITLE "6:cjc137_1871"
    INDEX 01 00:37:32
  TRACK 52 AUDIO
    TITLE "0:"
    INDEX 01 00:38:30
  TRACK 53 AUDIO
    TITLE "5:cjc137_1872"
    INDEX 01 00:38:35
  TRACK 54 AUDIO
    TITLE "0:"
    INDEX 01 00:39:23
  TRACK 55 AUDIO
    TITLE "4:cjc137_1873"
    INDEX 01 00:40:32
  TRACK 56 AUDIO
    TITLE "0:"
    INDEX 01 00:41:51
  TRACK 57 AUDIO
    TITLE "6:cjc137_1874"
    INDEX 01 00:41:57
  TRACK 58 AUDIO
    TITLE "0:"
    INDEX 01 00:42:65
  TRACK 59 AUDIO
    TITLE "5:cjc137_1875"
    INDEX 01 00:42:68
  TRACK 60 AUDIO
    TITLE "0:"
    INDEX 01 00:44:11
  TRACK 61 AUDIO
    TITLE "4:cjc137_1876"
    INDEX 01 00:45:18
  TRACK 62 AUDIO
    TITLE "0:"
    INDEX 01 00:46:13
  TRACK 63 AUDIO
    TITLE "6:cjc137_1877"
    INDEX 01 00:46:19
  TRACK 64 AUDIO
    TITLE "0:"
    INDEX 01 00:47:38
  TRACK 65 AUDIO
    TITLE "5:cjc137_1878"
    INDEX 01 00:47:46
  TRACK 66 AUDIO
    TITLE "0:"
    INDEX 01 00:48:40
  TRACK 67 AUDIO
    TITLE "4:cjc137_1879"
    INDEX 01 00:49:47
  TRACK 68 AUDIO
    TITLE "0:"
    INDEX 01 00:50:54
  TRACK 69 AUDIO
    TITLE "6:cjc137_1880"
    INDEX 01 00:50:62
  TRACK 70 AUDIO
    TITLE "0:"
    INDEX 01 00:51:44
  TRACK 71 AUDIO
    TITLE "5:cjc137_1881"
    INDEX 01 00:51:56
  TRACK 72 AUDIO
    TITLE "0:"
    INDEX 01 00:52:59
  TRACK 73 AUDIO
    TITLE "4:cjc137_1882"
    INDEX 01 00:53:72
  TRACK 74 AUDIO
    TITLE "0:"
    INDEX 01 00:55:12
  TRACK 75 AUDIO
    TITLE "6:cjc137_1883"
    INDEX 01 00:55:24
  TRACK 76 AUDIO
    TITLE "0:"
    INDEX 01 00:56:39
  TRACK 77 AUDIO
    TITLE "5:cjc137_1884"
    INDEX 01 00:56:47
  TRACK 78 AUDIO
    TITLE "0:"
    INDEX 01 00:57:62
  TRACK 79 AUDIO
    TITLE "4:cjc137_1885"
    INDEX 01 00:59:00
  TRACK 80 AUDIO
    TITLE "0:"
    INDEX 01 01:00:02
  TRACK 81 AUDIO
    TITLE "6:cjc137_1886"
    INDEX 01 01:00:10
  TRACK 82 AUDIO
    TITLE "0:"
    INDEX 01 01:01:05
  TRACK 83 AUDIO
    TITLE "5:cjc137_1887"
    INDEX 01 01:01:11
  TRACK 84 AUDIO
    TITLE "0:"
    INDEX 01 01:02:16
